<?xml version="1.0" encoding="UTF-8"?>
<svg version="1.1" xmlns="http://www.w3.org/2000/svg" width="900" height="150">
<path d="M0 0 C3.81269856 4.05324737 6.33010352 8.21196467 8.6875 13.25 C11.64245265 19.36656541 14.79002228 25.3321538 18.125 31.25 C21.96339998 38.07268467 25.59790183 44.94686965 29 52 C29.33 52 29.66 52 30 52 C30.00364563 51.4097554 30.00729126 50.8195108 30.01104736 50.21138 C30.05288825 44.06280272 30.1222449 37.91497081 30.20751953 31.7668457 C30.23572882 29.47297626 30.25694353 27.17900962 30.27099609 24.88500977 C30.29242551 21.58559407 30.33907783 18.28734698 30.390625 14.98828125 C30.39185364 13.96414627 30.39308228 12.94001129 30.39434814 11.88484192 C30.48514619 7.46149793 30.56294756 4.73785753 32.85058594 0.87573242 C36.33962975 -2.16905672 39.47766206 -2.23148785 44.00390625 -2.1484375 C46.74619698 -1.94450981 48.63552955 -1.41868227 51 0 C54.30115239 4.22526514 54.42896298 8.12714826 54.38818359 13.29101562 C54.39344055 14.11276779 54.39869751 14.93451996 54.40411377 15.78117371 C54.41728655 18.48972746 54.40858543 21.19769056 54.3984375 23.90625 C54.40045902 25.79284782 54.40337111 27.67944489 54.40713501 29.56604004 C54.41155467 33.5169215 54.4051388 37.46759927 54.39111328 41.41845703 C54.37402164 46.47931381 54.38386473 51.53969326 54.40183067 56.60053253 C54.41267815 60.49533679 54.40921773 64.39002813 54.4014473 68.28483582 C54.39944796 70.15073198 54.40189521 72.01663844 54.40888596 73.88252258 C54.41651628 76.49161889 54.40487428 79.09994531 54.38818359 81.70898438 C54.39425629 82.47796555 54.40032898 83.24694672 54.40658569 84.03923035 C54.35338251 88.53505785 53.80750111 91.44375982 51 95 C46.31192972 98.12538018 41.48811686 97.44399884 36 97 C29.85805741 95.21325306 28.02790973 91.23935275 25 86 C23.04759368 82.42448369 21.17553392 78.8102358 19.3125 75.1875 C18.25923342 73.15749042 17.20584592 71.12754358 16.15234375 69.09765625 C14.60069348 66.09868835 13.05090001 63.09879222 11.50439453 60.09716797 C10.13275044 57.43724966 8.75437349 54.78091582 7.375 52.125 C6.96161377 51.31699951 6.54822754 50.50899902 6.12231445 49.67651367 C4.28907323 45.6691841 4.28907323 45.6691841 1 43 C1.00888245 43.57549591 1.01776489 44.15099182 1.0269165 44.743927 C1.11556901 50.74617559 1.17580837 56.74823748 1.21972656 62.75097656 C1.23981316 64.98966021 1.2670878 67.22829158 1.30175781 69.46679688 C1.35040464 72.68893349 1.37299874 75.91037501 1.390625 79.1328125 C1.41127014 80.12991241 1.43191528 81.12701233 1.45318604 82.15432739 C1.45508366 88.06168735 1.03523665 91.55395257 -3 96 C-5.98163318 96.99387773 -8.24993246 97.26369622 -11.375 97.375 C-12.31085937 97.42398438 -13.24671875 97.47296875 -14.2109375 97.5234375 C-18.21832015 96.77135168 -19.49617452 95.18589545 -22 92 C-22.71522186 89.10399863 -22.67410524 86.29743558 -22.63110352 83.32592773 C-22.63825882 82.46355499 -22.64541412 81.60118225 -22.65278625 80.712677 C-22.66966158 77.8691064 -22.65027951 75.02711481 -22.62890625 72.18359375 C-22.62973498 70.20491912 -22.63219452 68.22624457 -22.63621521 66.24757385 C-22.63907231 62.10404702 -22.62437906 57.961061 -22.59692383 53.81762695 C-22.56281905 48.5054255 -22.56886756 43.19418966 -22.5875864 37.8819418 C-22.59815172 33.7975509 -22.58922318 29.71338494 -22.57420158 25.62901497 C-22.56901738 23.67019379 -22.56950446 21.71134915 -22.57574654 19.75253105 C-22.58119395 17.01606543 -22.56084012 14.28098548 -22.53344727 11.54467773 C-22.54323608 10.32970863 -22.54323608 10.32970863 -22.55322266 9.0901947 C-22.49252049 5.52599031 -22.31714536 3.42465111 -20.15415955 0.52845764 C-14.27193017 -3.64520649 -6.35045575 -2.63603824 0 0 Z M30 54 C31 56 31 56 31 56 Z " fill="#FEFEFE" transform="translate(812,28)"/>
<path d="M0 0 C0.75796875 0.26683594 1.5159375 0.53367187 2.296875 0.80859375 C9.04517563 3.66266826 13.1055082 9.0054807 16.9375 15.0625 C19.6798502 22.58240371 19.2781888 32.2680497 16 39.5 C12.93579093 44.75920124 8.47736083 49.26131958 3 52 C3.61994787 55.19950107 4.73331475 57.26100822 6.5625 59.9375 C9.8429356 65.26920556 12.12097933 70.8690985 14.375 76.6875 C14.73279541 77.59040771 15.09059082 78.49331543 15.45922852 79.42358398 C17.33592535 84.38953513 18.73322817 88.61146466 18 94 C16.89453125 95.9140625 16.89453125 95.9140625 15 97 C9.42219777 97.75959389 3.87480282 97.49336916 -1.5625 96.0625 C-7.78391189 90.7982284 -9.79964886 80.19926559 -12.35546875 72.66601562 C-12.64035156 71.86228516 -12.92523438 71.05855469 -13.21875 70.23046875 C-13.46560547 69.51270264 -13.71246094 68.79493652 -13.96679688 68.05541992 C-15.30961654 65.38405916 -16.63776166 63.84733313 -19 62 C-22.03222778 61.30602551 -22.03222778 61.30602551 -25.25 61.25 C-26.32765625 61.19328125 -27.4053125 61.1365625 -28.515625 61.078125 C-29.33546875 61.05234375 -30.1553125 61.0265625 -31 61 C-30.97905273 61.88260498 -30.95810547 62.76520996 -30.93652344 63.67456055 C-30.86815905 66.96405569 -30.81811051 70.25279094 -30.78027344 73.54272461 C-30.76021579 74.96374457 -30.73296222 76.38468259 -30.69824219 77.80541992 C-30.64945989 79.85355895 -30.62697461 81.90060275 -30.609375 83.94921875 C-30.58842773 85.17987061 -30.56748047 86.41052246 -30.54589844 87.6784668 C-31.08294653 91.6067137 -32.24036676 93.21246252 -35 96 C-38.9255295 97.96276475 -43.71048231 97.34092987 -48 97 C-51.30491898 95.7185008 -52.49449894 94.98043924 -54.10591125 91.8550415 C-55.1993011 88.3635834 -55.27248296 85.1256856 -55.24291992 81.50683594 C-55.24481827 80.76953751 -55.24671661 80.03223907 -55.24867249 79.27259827 C-55.25236685 76.84308115 -55.24169056 74.41386543 -55.23046875 71.984375 C-55.22927548 70.28672318 -55.2288241 68.58907068 -55.2290802 66.89141846 C-55.22751734 63.33398297 -55.21924615 59.77664838 -55.20581055 56.21923828 C-55.18887298 51.67905824 -55.18499497 47.13898952 -55.18575573 42.59878159 C-55.18548249 39.09158279 -55.17997589 35.5844079 -55.17275429 32.0772171 C-55.1695906 30.40442333 -55.16760564 28.73162686 -55.16686058 27.05883026 C-55.14580123 4.4784532 -55.14580123 4.4784532 -52.0625 0.5 C-40.62219377 -7.82022271 -12.71623794 -4.61863359 0 0 Z M-31 17 C-31.08748207 18.92667507 -31.10697334 20.85651861 -31.09765625 22.78515625 C-31.09443359 23.95498047 -31.09121094 25.12480469 -31.08789062 26.33007812 C-31.07951172 27.56177734 -31.07113281 28.79347656 -31.0625 30.0625 C-31.05798828 31.29806641 -31.05347656 32.53363281 -31.04882812 33.80664062 C-31.03699608 36.87114117 -31.02051173 39.93554721 -31 43 C-28.91808145 43.03387375 -26.83600359 43.05805106 -24.75390625 43.078125 C-23.01475952 43.09987793 -23.01475952 43.09987793 -21.24047852 43.12207031 C-15.91302897 42.92138284 -12.68645471 41.46455278 -8.625 37.9375 C-5.09147227 33.72444771 -5.54138964 29.28652665 -6 24 C-7.73365628 19.71148184 -9.87013277 17.97322055 -14 16 C-16.83947696 15.76431219 -19.4253066 15.66871386 -22.25 15.75 C-23.34828125 15.75773437 -23.34828125 15.75773437 -24.46875 15.765625 C-28.0305461 15.50977362 -28.0305461 15.50977362 -31 17 Z " fill="#FEFEFE" transform="translate(331,28)"/>
<path d="M0 0 C3.33436969 5.88369571 5.48128518 11.95199997 7.5390625 18.375 C7.86201294 19.36578552 8.18496338 20.35657104 8.5177002 21.37738037 C9.56033489 24.58274124 10.59338542 27.79107687 11.625 31 C12.33821074 33.20871316 13.05159059 35.41737173 13.76513672 37.62597656 C15.18474538 42.02474008 16.59954349 46.42501693 18.01171875 50.82617188 C19.51171911 55.4952023 21.03210627 60.15700709 22.56802368 64.81433105 C23.5440956 67.78075413 24.50724144 70.75124433 25.4664917 73.72314453 C25.90248145 75.06509908 26.34385992 76.40531585 26.79083252 77.74365234 C27.39912038 79.56892119 27.98536603 81.40149254 28.5703125 83.234375 C28.89789551 84.23694336 29.22547852 85.23951172 29.56298828 86.27246094 C30.09091222 89.56741415 29.62769783 91.11309271 28 94 C24.46575288 96.35616475 22.81355898 96.2981228 18.625 96.3125 C17.50351562 96.32925781 16.38203125 96.34601563 15.2265625 96.36328125 C11.6783642 95.96378677 9.83916914 95.12430691 7 93 C3.5250802 87.65396954 2.74247252 82.38906591 1 76 C-7.91 76 -16.82 76 -26 76 C-26.556875 78.206875 -27.11375 80.41375 -27.6875 82.6875 C-29.0848646 88.22520414 -30.56352302 91.32678788 -35 95 C-38.1765511 96.05885037 -40.59988011 96.20049266 -43.9375 96.25 C-44.97777344 96.27578125 -46.01804687 96.3015625 -47.08984375 96.328125 C-50.45353694 95.94886295 -51.80988447 95.59647432 -54 93 C-54.32728858 88.11440935 -53.70957105 84.25465135 -52.16748047 79.63183594 C-51.76641083 78.41236267 -51.36534119 77.1928894 -50.95211792 75.9364624 C-50.50730956 74.61904305 -50.06232808 73.30168214 -49.6171875 71.984375 C-49.15978903 70.60531457 -48.70335577 69.22593366 -48.24783325 67.84625244 C-47.04594624 64.21405095 -45.83189032 60.58603668 -44.6149292 56.9588623 C-43.16202521 52.62160293 -41.72271406 48.27981998 -40.28223038 43.93842316 C-39.12230218 40.44339195 -37.95947635 36.94940056 -36.78900146 33.45788574 C-34.83687718 27.62430109 -32.90851661 21.7905924 -31.15722656 15.89257812 C-30.89273712 15.00878479 -30.62824768 14.12499146 -30.35574341 13.2144165 C-29.89573538 11.65622645 -29.44867001 10.09411328 -29.01901245 8.52728271 C-27.63289468 3.83241541 -25.74190857 1.14122693 -22 -2 C-15.24815341 -4.71671934 -6.01256597 -3.9265737 0 0 Z M-13 23 C-15.52129821 29.33006785 -17.56727737 35.71598298 -19.25 42.3125 C-19.42499023 42.98152344 -19.59998047 43.65054688 -19.78027344 44.33984375 C-20.76081787 48.30147999 -21.27151267 51.92113924 -21 56 C-19.92656396 57.29688975 -19.92656396 57.29688975 -17.3828125 57.1328125 C-16.30773437 57.13023438 -15.23265625 57.12765625 -14.125 57.125 C-13.05507813 57.12757812 -11.98515625 57.13015625 -10.8828125 57.1328125 C-7.92980831 57.12784318 -7.92980831 57.12784318 -5 56 C-3.82103111 51.76417186 -4.26370499 48.86780907 -5.36328125 44.640625 C-5.67330078 43.44308594 -5.98332031 42.24554688 -6.30273438 41.01171875 C-6.80256836 39.14966797 -6.80256836 39.14966797 -7.3125 37.25 C-7.63412109 35.99316406 -7.95574219 34.73632812 -8.28710938 33.44140625 C-9.51549776 28.68150747 -9.51549776 28.68150747 -11 24 C-11.66 23.67 -12.32 23.34 -13 23 Z " fill="#FEFEFE" transform="translate(749,29)"/>
<path d="M0 0 C0.96465179 -0.00960754 1.92930359 -0.01921509 2.92318726 -0.02911377 C3.96383331 -0.03336365 5.00447937 -0.03761353 6.07666016 -0.04199219 C7.14816315 -0.04769226 8.21966614 -0.05339233 9.32363892 -0.05926514 C11.59156303 -0.06871456 13.85950088 -0.07524889 16.12744141 -0.07910156 C19.59513303 -0.08880955 23.06223259 -0.11983502 26.52978516 -0.15136719 C28.73290664 -0.15789709 30.93603235 -0.16314761 33.13916016 -0.16699219 C34.17575775 -0.17933899 35.21235535 -0.19168579 36.28036499 -0.20440674 C45.37442518 -0.17629819 45.37442518 -0.17629819 49.24072266 3.16113281 C51.69737463 6.84611077 51.94158757 9.88085067 51.24072266 14.16113281 C49.44708355 16.97116742 48.2219133 18.67053749 45.24072266 20.16113281 C42.75972531 20.24762732 40.30727337 20.27678335 37.82666016 20.25878906 C37.09702057 20.25737411 36.36738098 20.25595917 35.6156311 20.25450134 C33.28228681 20.24889812 30.94903802 20.23634516 28.61572266 20.22363281 C27.03499487 20.21861822 25.45426559 20.21405525 23.87353516 20.20996094 C19.99586447 20.19977798 16.11840064 20.18020336 12.24072266 20.16113281 C12.24072266 26.10113281 12.24072266 32.04113281 12.24072266 38.16113281 C13.79662109 38.14953125 15.35251953 38.13792969 16.95556641 38.12597656 C19.02978395 38.11659096 21.1040028 38.10749159 23.17822266 38.09863281 C24.19980469 38.09025391 25.22138672 38.081875 26.27392578 38.07324219 C42.82340934 38.02036844 42.82340934 38.02036844 46.80322266 41.22363281 C48.79697759 45.29782769 48.74340277 47.63701177 48.24072266 52.16113281 C46.49818921 55.39726635 45.76886322 55.98508596 42.24072266 57.16113281 C39.88392052 57.24510438 37.52478185 57.26841469 35.16650391 57.25878906 C34.14075508 57.25666664 34.14075508 57.25666664 33.09428406 57.25450134 C30.91388544 57.24891158 28.73359015 57.23636103 26.55322266 57.22363281 C25.07340643 57.21861649 23.5935886 57.21405381 22.11376953 57.20996094 C18.4893489 57.19979711 14.86515122 57.18021991 11.24072266 57.16113281 C11.57072266 64.42113281 11.90072266 71.68113281 12.24072266 79.16113281 C14.49271484 79.12632813 16.74470703 79.09152344 19.06494141 79.05566406 C21.25592787 79.0322404 23.44690017 79.01403992 25.63793945 78.99633789 C27.15590704 78.98128928 28.67383142 78.96084543 30.19165039 78.93481445 C32.37868943 78.89825628 34.56515162 78.88136759 36.75244141 78.86816406 C38.06688232 78.85245361 39.38132324 78.83674316 40.7355957 78.82055664 C44.47442799 79.18384083 46.29445813 79.88115425 49.24072266 82.16113281 C51.69737463 85.84611077 51.94158757 88.88085067 51.24072266 93.16113281 C49.44708355 95.97116742 48.2219133 97.67053749 45.24072266 99.16113281 C43.63349261 99.26646191 42.02200687 99.30986005 40.41137695 99.32226562 C39.40660812 99.33187317 38.40183929 99.34148071 37.36662292 99.35137939 C36.27706802 99.35562927 35.18751312 99.35987915 34.06494141 99.36425781 C32.94763138 99.36995789 31.83032135 99.37565796 30.67915344 99.38153076 C28.31109568 99.39099023 25.9430247 99.39751849 23.57495117 99.40136719 C19.9535418 99.41106501 16.33270167 99.442077 12.71142578 99.47363281 C10.41260103 99.48016348 8.11377222 99.4854137 5.81494141 99.48925781 C4.7314592 99.50160461 3.64797699 99.51395142 2.53166199 99.52667236 C-6.93371063 99.49866427 -6.93371063 99.49866427 -10.75927734 96.16113281 C-12.37634131 92.92700489 -11.92460632 89.38192767 -11.9362793 85.82763672 C-11.94285049 84.96570206 -11.94942169 84.1037674 -11.95619202 83.2157135 C-11.97594281 80.35637328 -11.9875906 77.49708558 -11.99755859 74.63769531 C-12.00163412 73.66262402 -12.00570965 72.68755272 -12.00990868 71.68293381 C-12.03077545 66.52365072 -12.04507543 61.3643943 -12.05444336 56.20507812 C-12.06551857 50.86936812 -12.09992957 45.53407393 -12.13961506 40.19851112 C-12.1657247 36.10132049 -12.17413008 32.00422986 -12.17772484 27.90696335 C-12.18260421 25.9397335 -12.19425641 23.9725085 -12.21276283 22.00535965 C-12.23703777 19.25437424 -12.23621089 16.50447705 -12.22924805 13.75341797 C-12.24205811 12.93872543 -12.25486816 12.1240329 -12.26806641 11.28465271 C-12.23499028 7.7051152 -12.08580073 5.59981011 -9.91740417 2.68661499 C-6.6081822 0.34747575 -3.94087898 0.03170398 0 0 Z " fill="#FEFEFE" transform="translate(122.75927734375,25.8388671875)"/>
<path d="M0 0 C0.94455551 -0.00637985 1.88911102 -0.0127597 2.86228943 -0.01933289 C3.87590042 -0.02044571 4.88951141 -0.02155853 5.93383789 -0.02270508 C6.98172989 -0.02603348 8.02962189 -0.02936188 9.10926819 -0.03279114 C11.32414308 -0.03785082 13.53902558 -0.04019976 15.75390625 -0.04003906 C19.1401831 -0.0422258 22.52613428 -0.06039252 25.91235352 -0.0793457 C28.06534719 -0.08227977 30.21834242 -0.08426448 32.37133789 -0.08520508 C33.38292465 -0.09239059 34.39451141 -0.09957611 35.43675232 -0.10697937 C36.38445999 -0.10390274 37.33216766 -0.10082611 38.30859375 -0.09765625 C39.13814072 -0.09908127 39.96768768 -0.10050629 40.82237244 -0.10197449 C44.78405938 0.30671754 47.47415991 1.24632581 50.03149414 4.33276367 C51.54161574 7.90936745 51.70044863 10.29362777 51.21899414 14.14526367 C49.42337009 16.89855388 48.16644492 18.67153828 45.21899414 20.14526367 C42.7379968 20.23175818 40.28554486 20.26091421 37.80493164 20.24291992 C37.07529205 20.24150497 36.34565247 20.24009003 35.59390259 20.2386322 C33.26055829 20.23302898 30.9273095 20.22047602 28.59399414 20.20776367 C27.01326636 20.20274908 25.43253707 20.1981861 23.85180664 20.1940918 C19.97413596 20.18390884 16.09667212 20.16433422 12.21899414 20.14526367 C12.21899414 26.08526367 12.21899414 32.02526367 12.21899414 38.14526367 C13.97211914 38.12463867 15.72524414 38.10401367 17.53149414 38.08276367 C20.09447065 38.09405432 22.65625713 38.11511382 25.21899414 38.14526367 C26.0162793 38.15106445 26.81356445 38.15686523 27.63500977 38.1628418 C30.18518415 38.19228954 32.73225628 38.2587559 35.28149414 38.33276367 C36.51283081 38.34134399 36.51283081 38.34134399 37.76904297 38.35009766 C41.89858333 38.50430931 43.61789456 38.59061692 46.74633789 41.47729492 C48.69596161 45.00937184 48.7876351 47.16477695 48.21899414 51.14526367 C46.42337009 53.89855388 45.16644492 55.67153828 42.21899414 57.14526367 C39.96925253 57.3002213 37.71527878 57.39537295 35.46118164 57.46166992 C34.46660446 57.49284157 34.46660446 57.49284157 33.45193481 57.52464294 C31.3327272 57.59005598 29.21339514 57.64898472 27.09399414 57.70776367 C25.65778333 57.75095677 24.22158512 57.79457131 22.78540039 57.83862305 C19.2633907 57.94652277 15.74128726 58.0456561 12.21899414 58.14526367 C12.21899414 65.07526367 12.21899414 72.00526367 12.21899414 79.14526367 C14.45938477 79.09885742 16.69977539 79.05245117 19.00805664 79.00463867 C21.19244118 78.97338987 23.37680025 78.94913269 25.5612793 78.92553711 C27.0724615 78.90549576 28.58356686 78.87825462 30.09448242 78.84350586 C32.27420057 78.79465259 34.45288845 78.77222143 36.63305664 78.75463867 C37.94226074 78.73369141 39.25146484 78.71274414 40.6003418 78.69116211 C44.81760318 79.2203826 46.95346559 80.47487068 50.21899414 83.14526367 C51.45889433 86.11995983 51.47596599 88.94739177 51.21899414 92.14526367 C49.65718095 95.81552467 48.55988818 96.91800098 45.21899414 99.14526367 C42.91775513 99.41268921 42.91775513 99.41268921 40.18432617 99.43579102 C39.15961212 99.44855072 38.13489807 99.46131042 37.07913208 99.47445679 C35.41973099 99.47779526 35.41973099 99.47779526 33.72680664 99.48120117 C32.58871552 99.48785797 31.45062439 99.49451477 30.27804565 99.50137329 C27.8688926 99.51150506 25.45971145 99.51619015 23.05053711 99.51586914 C19.36533291 99.52023837 15.6813298 99.55654361 11.99633789 99.59448242 C9.65649824 99.6003512 7.3166529 99.60432018 4.97680664 99.60620117 C3.87458771 99.6205722 2.77236877 99.63494324 1.63674927 99.64974976 C0.6057309 99.6435965 -0.42528748 99.63744324 -1.48754883 99.63110352 C-2.39117157 99.63395355 -3.29479431 99.63680359 -4.22579956 99.63973999 C-7.82439175 98.94335058 -9.3543044 97.90481093 -11.78100586 95.14526367 C-12.27385642 92.07547558 -12.44581582 89.56129851 -12.39624023 86.49291992 C-12.40178925 85.62093964 -12.40733826 84.74895935 -12.41305542 83.85055542 C-12.42486338 80.9690653 -12.40056523 78.08914374 -12.37475586 75.20776367 C-12.373045 73.20524162 -12.37311018 71.20271732 -12.37487793 69.20019531 C-12.37322403 65.00360688 -12.35451301 60.80755221 -12.32299805 56.61108398 C-12.28332035 51.23058541 -12.27895237 45.85078617 -12.28646088 40.47016907 C-12.28952975 36.33518054 -12.27741298 32.20034938 -12.2603302 28.06539917 C-12.25329654 26.08146146 -12.25017611 24.09750591 -12.25102234 22.11355591 C-12.24922553 19.34124491 -12.22785378 16.56977336 -12.20092773 13.79760742 C-12.20385834 12.97670624 -12.20678894 12.15580505 -12.20980835 11.31002808 C-12.16110354 8.06158603 -12.00538498 5.58097336 -10.50476074 2.66699219 C-7.34044376 -0.12646263 -4.07358817 0.01873625 0 0 Z " fill="#FEFEFE" transform="translate(375.781005859375,25.854736328125)"/>
<path d="M0 0 C1.10029541 0.00491455 2.20059082 0.0098291 3.33422852 0.01489258 C15.6308744 0.19173792 28.966169 1.40455657 38.58984375 9.9453125 C45.25086755 17.2089228 47.09102366 25.62104478 46.9609375 35.2734375 C46.22627137 45.85807171 42.98117818 53.22270501 35.4375 60.5625 C23.67413095 68.22236822 11.35602282 68.64301068 -2.25 68.3125 C-2.2593457 69.10946289 -2.26869141 69.90642578 -2.27832031 70.72753906 C-2.33201498 74.33982175 -2.41566608 77.95080821 -2.5 81.5625 C-2.52126953 83.44388672 -2.52126953 83.44388672 -2.54296875 85.36328125 C-2.57519531 86.56855469 -2.60742188 87.77382812 -2.640625 89.015625 C-2.6720459 90.68093262 -2.6720459 90.68093262 -2.70410156 92.37988281 C-3.36426152 95.9263235 -4.4704506 97.08964089 -7.25 99.3125 C-11.16776386 101.27138193 -15.96873625 100.67081645 -20.25 100.3125 C-23.36937969 98.93997293 -24.7397715 98.332957 -26.25 95.3125 C-26.36407607 92.56259849 -26.41784574 89.83744277 -26.42700195 87.08666992 C-26.43357315 86.23609512 -26.44014435 85.38552032 -26.44691467 84.50917053 C-26.46666696 81.68710243 -26.47831439 78.86508758 -26.48828125 76.04296875 C-26.49235678 75.08017817 -26.4964323 74.11738758 -26.50063133 73.12542152 C-26.52150004 68.0298242 -26.53579844 62.93425388 -26.54516602 57.83862305 C-26.55623376 52.57251096 -26.59063562 47.30682104 -26.63033772 42.04085827 C-26.65646923 37.99423938 -26.66485476 33.94772162 -26.66844749 29.90102577 C-26.67332222 27.95974183 -26.68496132 26.01846266 -26.70348549 24.07726097 C-26.72780391 21.36000387 -26.72692539 18.64384602 -26.7199707 15.92651367 C-26.73278076 15.12476715 -26.74559082 14.32302063 -26.75878906 13.49697876 C-26.72362473 9.72710245 -26.39730842 7.54422543 -24.35484314 4.33129883 C-18.48417688 -1.29937927 -7.62465218 -0.04024333 0 0 Z M-3.25 21.3125 C-3.7096469 25.60703207 -3.57399779 29.93372818 -3.5625 34.25 C-3.57861328 35.45591797 -3.59472656 36.66183594 -3.61132812 37.90429688 C-3.61197266 39.05865234 -3.61261719 40.21300781 -3.61328125 41.40234375 C-3.61626221 42.46316162 -3.61924316 43.52397949 -3.62231445 44.61694336 C-3.46795972 47.32763343 -3.46795972 47.32763343 -1.88061523 49.15698242 C1.68602911 51.68444577 6.59726064 50.73707979 10.75 50.3125 C15.86490903 49.0860627 19.44589687 46.37182671 22.75 42.3125 C25.09055694 37.52499718 25.13247492 33.36811998 23.75 28.3125 C21.21747243 23.34124218 18.87353381 21.38588327 13.75 19.3125 C9.93286189 18.87829617 9.93286189 18.87829617 6 19 C4.02773438 19.00580078 4.02773438 19.00580078 2.015625 19.01171875 C-1.33293101 18.96924924 -1.33293101 18.96924924 -3.25 21.3125 Z " fill="#FEFEFE" transform="translate(559.25,24.6875)"/>
<path d="M0 0 C1.1614856 0.00737183 1.1614856 0.00737183 2.34643555 0.01489258 C20.99338294 0.38664953 20.99338294 0.38664953 27.29296875 5.73828125 C30.39324428 9.45974131 30.79966177 12.55833229 30.7109375 17.3671875 C30.4375 19.3125 30.4375 19.3125 28.875 21.875 C25.3520327 23.95264738 23.37248689 23.23066361 19.4375 22.3125 C17.7359375 21.7865625 17.7359375 21.7865625 16 21.25 C11.77136527 20.14905368 7.53370963 20.05511409 3.1875 20 C2.48955322 19.98251709 1.79160645 19.96503418 1.07250977 19.94702148 C-2.01918845 19.95037514 -4.25453059 20.15214013 -7.015625 21.58984375 C-9.12300768 23.93670173 -9.04560046 26.11015435 -9.09375 29.1796875 C-8.26230458 32.51769634 -7.07875997 33.9118016 -4.5625 36.3125 C-0.19172311 38.50691701 4.43198227 40.07102692 9.02148438 41.7421875 C18.16305989 45.23181414 26.81077895 50.33121797 31.4375 59.3125 C34.66260441 67.42618373 34.37890095 76.66764073 31.59375 84.85546875 C28.39320338 91.65663033 23.841896 96.15014021 16.8125 98.8125 C4.16319756 102.81873069 -12.15159939 103.33263957 -24.5625 98.3125 C-27.55134437 96.5848443 -30.04811133 94.84608112 -31.19140625 91.4375 C-31.58539166 89.18141515 -31.76600315 87.03996985 -31.8125 84.75 C-31.83828125 83.98558594 -31.8640625 83.22117187 -31.890625 82.43359375 C-31.47910873 79.77343498 -30.70640928 78.89624296 -28.5625 77.3125 C-25.68140847 77.45304105 -23.18809086 78.08873997 -20.4765625 79.05859375 C-13.04613161 81.63826162 -5.36484977 82.44495534 2.4375 81.3125 C6.10296588 79.01104375 7.21558162 78.07534442 8.4375 73.875 C8.4375 69.76011627 8.16629318 68.37205599 5.4375 65.3125 C1.82686363 63.17286363 -1.64138478 61.64053587 -5.58984375 60.234375 C-17.24180546 56.07790828 -26.72900709 50.60097674 -32.5625 39.3125 C-34.74815059 32.75554822 -34.64278306 23.3355395 -32.375 16.75 C-28.52640838 9.45094693 -24.16045525 5.49464818 -16.5625 2.3125 C-10.9312621 0.63249451 -5.86189259 -0.04449132 0 0 Z " fill="#FEFEFE" transform="translate(61.5625,24.6875)"/>
<path d="M0 0 C3.0236794 2.28619662 3.80331196 3.40993589 5 7 C5.4519774 14.11864407 5.4519774 14.11864407 3.75 17.4375 C1.70507948 19.26332189 0.69436769 19.5890739 -2 20 C-4.76953125 19.66015625 -4.76953125 19.66015625 -7.8125 19.0625 C-17.34278236 17.38000759 -25.22180226 17.78989015 -33.8125 22.5625 C-42.46060857 32.19896384 -42.66887713 43.51321294 -42.19238281 55.74804688 C-41.80168632 60.32137737 -40.23458664 64.05030626 -38 68 C-37.5875 68.928125 -37.175 69.85625 -36.75 70.8125 C-33.36948407 75.03814491 -28.35743253 78.08768359 -23 79 C-20.81415251 79.09467365 -18.62539133 79.12988914 -16.4375 79.125 C-15.20128906 79.12242188 -13.96507812 79.11984375 -12.69140625 79.1171875 C-9.36396844 79.01155455 -6.17195784 78.6848612 -2.875 78.25 C1.63231323 77.81188119 1.63231323 77.81188119 4.6875 79.375 C6.63659237 83.27318474 6.63330433 86.7271033 6 91 C4.76950805 93.89165608 3.8185589 95.39366008 1.3125 97.25 C-11.93033258 101.54497273 -31.37367169 100.78566036 -43.734375 94.640625 C-46.2475429 93.19815585 -48.62318433 91.65566334 -51 90 C-52.5778125 88.948125 -52.5778125 88.948125 -54.1875 87.875 C-63.72031224 79.39838002 -66.59137341 66.35150169 -67.8125 54.25 C-68.57464598 39.54220409 -66.59897053 24.09593669 -56.75 12.5625 C-42.806745 -1.58715186 -19.08435804 -7.4750549 0 0 Z " fill="#FEFEFE" transform="translate(252,27)"/>
<path d="M0 0 C1.80723793 -0.01441132 1.80723793 -0.01441132 3.65098572 -0.02911377 C4.94895584 -0.03336365 6.24692596 -0.03761353 7.58422852 -0.04199219 C8.9341685 -0.04774836 10.28410849 -0.05350604 11.63404846 -0.05926514 C14.46095153 -0.06975392 17.28782632 -0.07561084 20.11474609 -0.07910156 C23.73065845 -0.08459007 27.34619498 -0.10863417 30.9619894 -0.13707352 C33.74930403 -0.15572643 36.53652845 -0.16090683 39.32390022 -0.16243744 C41.30309027 -0.16692164 43.28223197 -0.18555131 45.26133728 -0.20440674 C47.07330345 -0.19990509 47.07330345 -0.19990509 48.921875 -0.1953125 C49.98236557 -0.19895813 51.04285614 -0.20260376 52.13548279 -0.20635986 C55.48616501 0.2196908 57.326242 1.15754084 60.02563477 3.16113281 C62.04035073 6.18320676 62.3628251 7.0783998 62.46313477 10.53613281 C62.52307617 11.66148438 62.52307617 11.66148438 62.58422852 12.80957031 C61.7008349 16.52847213 60.03777503 17.83267768 57.02563477 20.16113281 C53.59125988 20.90823552 50.21882536 20.95133513 46.71313477 20.97363281 C45.31611328 21.01133789 45.31611328 21.01133789 43.89086914 21.04980469 C41.6020329 21.1084928 39.31510051 21.14490449 37.02563477 21.16113281 C37.02198914 22.06679993 37.01834351 22.97246704 37.0145874 23.90557861 C36.97672361 32.43991616 36.91988938 40.97387094 36.84173203 49.50793839 C36.80221955 53.89544422 36.77004973 58.28274822 36.75463867 62.67041016 C36.73949667 66.90465305 36.70509557 71.13834122 36.65732574 75.37233734 C36.64248644 76.98781259 36.63459229 78.60336703 36.63375092 80.21891022 C36.63138702 82.48182846 36.60435772 84.74320642 36.5715332 87.00585938 C36.55820953 88.93779144 36.55820953 88.93779144 36.5446167 90.90875244 C35.93972223 94.69953353 35.01954092 95.84821206 32.02563477 98.16113281 C29.32899269 99.50945385 27.15975955 99.33023963 24.15063477 99.34863281 C23.10133789 99.3628125 22.05204102 99.37699219 20.97094727 99.39160156 C18.01349124 99.16018259 16.42835277 98.86889426 14.02563477 97.16113281 C11.60622735 93.55822502 11.78391523 90.25979784 11.79858398 86.00585938 C11.79829193 85.29326462 11.79799988 84.58066986 11.79769897 83.84648132 C11.799089 81.49811501 11.81463454 79.1500685 11.83032227 76.80175781 C11.83405356 75.17079848 11.83689999 73.53983689 11.83889771 71.90887451 C11.84652497 67.6213357 11.86616564 63.33393291 11.88830566 59.04644775 C11.90878364 54.66933024 11.9179036 50.2921907 11.92797852 45.91503906 C11.94941241 37.3303413 11.98353738 28.74575399 12.02563477 20.16113281 C11.41042969 20.17684326 10.79522461 20.19255371 10.16137695 20.20874023 C7.36622356 20.27121207 4.57121721 20.31016149 1.77563477 20.34863281 C0.80754883 20.37376953 -0.16053711 20.39890625 -1.15795898 20.42480469 C-2.0925293 20.43447266 -3.02709961 20.44414063 -3.98999023 20.45410156 C-4.84882813 20.46981201 -5.70766602 20.48552246 -6.5925293 20.50170898 C-9.51972378 20.08315258 -10.84773943 19.18842515 -12.97436523 17.16113281 C-14.21283629 13.44571964 -14.52372995 10.02173694 -13.97436523 6.16113281 C-11.26485597 1.61302798 -11.26485597 1.61302798 -8.20713806 0.54229736 C-5.44395275 0.07058422 -2.80421652 0.01806859 0 0 Z " fill="#FEFEFE" transform="translate(454.974365234375,25.8388671875)"/>
<path d="M0 0 C2.81737385 1.74014267 3.67391244 3.33500001 5.125 6.3125 C5.52372742 9.60920715 5.52372742 9.60920715 5.55737305 13.39770508 C5.5675647 14.09093872 5.57775635 14.78417236 5.58825684 15.49841309 C5.61830936 17.77636884 5.6276405 20.05390356 5.63671875 22.33203125 C5.65357126 23.91673674 5.67172227 25.50142892 5.69111633 27.08610535 C5.7385607 31.24693642 5.76840586 35.40771346 5.79455566 39.56872559 C5.82438939 43.81871202 5.87091003 48.06851244 5.91601562 52.31835938 C6.00198539 60.64964807 6.06935861 68.98095381 6.125 77.3125 C7.63066528 77.33437378 7.63066528 77.33437378 9.16674805 77.35668945 C12.9037575 77.41482052 16.64017369 77.49205165 20.37670898 77.57495117 C21.99151963 77.6081311 23.60644431 77.63618458 25.22143555 77.65893555 C27.54785592 77.69261025 29.87323783 77.74492963 32.19921875 77.80078125 C32.91712082 77.80717117 33.63502289 77.8135611 34.37467957 77.82014465 C38.75434731 77.9475712 41.67565197 78.55000691 45.125 81.3125 C46.36171367 85.02264101 46.68868603 88.45688758 46.125 92.3125 C44.33136089 95.1225346 43.10619065 96.82190468 40.125 98.3125 C38.42600705 98.42328965 36.72277164 98.4716682 35.02026367 98.48950195 C33.42301704 98.50875481 33.42301704 98.50875481 31.79350281 98.52839661 C30.63832657 98.53578354 29.48315033 98.54317047 28.29296875 98.55078125 C27.10907059 98.558853 25.92517242 98.56692474 24.70539856 98.57524109 C22.19611073 98.58909064 19.68680399 98.59980888 17.17749023 98.60766602 C13.33866716 98.62488264 9.50070418 98.66876318 5.66210938 98.71289062 C3.22656885 98.72301688 0.79102098 98.73153319 -1.64453125 98.73828125 C-2.7936348 98.75578934 -3.94273834 98.77329742 -5.12666321 98.79133606 C-13.07904742 98.76967963 -13.07904742 98.76967963 -17.0769043 96.47338867 C-20.44259735 92.42861621 -20.02893059 88.24931096 -20.03613281 83.24853516 C-20.04109772 82.42707504 -20.04606262 81.60561493 -20.05117798 80.75926208 C-20.06579066 78.04002039 -20.07259986 75.32083702 -20.078125 72.6015625 C-20.08387688 70.71210732 -20.0896346 68.82265216 -20.09539795 66.93319702 C-20.10590517 62.97043587 -20.11174977 59.007695 -20.11523438 55.04492188 C-20.12072068 49.96836116 -20.14475281 44.89206845 -20.17320633 39.81559181 C-20.19183341 35.91223366 -20.19703833 32.00894008 -20.19857025 28.10554123 C-20.20159679 26.23404855 -20.20962536 24.36255701 -20.22275543 22.49110794 C-20.23981857 19.8722826 -20.23793519 17.25411235 -20.23144531 14.63525391 C-20.2406601 13.86313065 -20.24987488 13.09100739 -20.2593689 12.29548645 C-20.22441415 7.79059084 -19.66980476 4.89050042 -16.875 1.3125 C-11.87973161 -1.77281283 -5.53556241 -1.32372145 0 0 Z " fill="#FEFEFE" transform="translate(637.875,26.6875)"/>
</svg>
